# xmcd
#
# Track frame offsets:
# 150
# 14133
# 30420
# 44682
# 61677
# 79578
# 92160
# 107885
# 125224
# 145035
# 160068
# 177536
# 192581
# 208102
# 225818
# 241394
# 257736
# 273073
# 287689
#
# Disc length: 3996 seconds
#
#
# Revision: 2
# Processed by: cddbd v1.5.1PL2 Copyright (c) Steve Scherf et al.
# Submitted via: FreeRIP 2.944 
#
DISCID=0d0f9a13
DTITLE=Aviões do Forró - (vol.3)
DYEAR=2005
DGENRE=Forró
TTITLE0=Estando com ela e pensando em ti (tontos e loucos)
TTITLE1=O que tem que ser será
TTITLE2=Eu não vou mais chorar
TTITLE3=Titular absoluta
TTITLE4=Fiz tudo por ela - Me esculhamba
TTITLE5=Vai decolar
TTITLE6=Vai, vai que tá gostoso
TTITLE7=Seu avião
TTITLE8=Blá, blá, blá
TTITLE9=Tô sozinho
TTITLE10=Pout Pourry (chega de mentiras - tá na cara - me manda embora)
TTITLE11=Alta estação
TTITLE12=Adeus até nunca mais
TTITLE13=Fica comigo
TTITLE14=Bem me quer mau me quer
TTITLE15=Coração
TTITLE16=Me namora - caviar com rapadura
TTITLE17=Vuco, vuco - solteirões do forró
TTITLE18=Melô da gatinha - mala mansa
EXTD=YEAR: 2005
EXTT0=
EXTT1=
EXTT2=
EXTT3=
EXTT4=
EXTT5=
EXTT6=
EXTT7=
EXTT8=
EXTT9=
EXTT10=
EXTT11=
EXTT12=
EXTT13=
EXTT14=
EXTT15=
EXTT16=
EXTT17=
EXTT18=
PLAYORDER=
